# xmcd
#
# Track frame offsets:
#       150
#       19981
#       38472
#       58056
#       79797
#       98830
#       113719
#       130573
#       152021
#       167357
#       184986
#       202486
#       219579
#       229459
#       244343
#       261161
#       274291
#       286468
#       299550
#       315171
#
# Disc length: 4398 seconds
#
# Revision: 0
# Processed by: cddbd v1.5.1PL2 Copyright (c) Steve Scherf et al.
# Submitted via: CD-DA_X-Tractor v0.24
#
DISCID=2a112c14
DTITLE=Alejandro Fernández - Éxitos
DYEAR=2003
DGENRE=
TTITLE0=Yo nací para amarte
TTITLE1=Si tu supieras
TTITLE2=No sé olvidar
TTITLE3=En el jardín
TTITLE4=Me estoy enamorando
TTITLE5=Como el sol y el trigo
TTITLE6=Volverás
TTITLE7=Te juro
TTITLE8=Contigo aprendí
TTITLE9=La lluvia sigue cayendo
TTITLE10=Si he sabido amor
TTITLE11=Hoy que estás ausente
TTITLE12=Mi verdad
TTITLE13=Mentirosos
TTITLE14=Nadie simplemente nadie
TTITLE15=A una señora
TTITLE16=¿Por qué?
TTITLE17=Esta noche
TTITLE18=Amante torero
TTITLE19=Loco
EXTD=
EXTT0=
EXTT1=
EXTT2=
EXTT3=
EXTT4=
EXTT5=
EXTT6=
EXTT7=
EXTT8=
EXTT9=
EXTT10=
EXTT11=
EXTT12=
EXTT13=
EXTT14=
EXTT15=
EXTT16=
EXTT17=
EXTT18=
EXTT19=
PLAYORDER=
